# xmcd
#
# Track frame offsets:
#	150
#	8338
#	47876
#	76372
#	107412
#	154906
#	203491
#	259003
#	275959
#	293948
#
# Disc length: 4116 seconds
#
# Revision: 1
# Processed by: cddbd v1.5PL3 Copyright (c) Steve Scherf et al.
# Submitted via: audiograbber 1.82.01
#
DISCID=8210120a
DTITLE=Jimi Hendrix - 1969-01-09 -  Stockholm, Sweden - Disc 2
DYEAR=1900
DGENRE=
TTITLE0=Jimi Hendrix - Jimi Intro
TTITLE1=Jimi Hendrix - I Don't Live Today
TTITLE2=Jimi Hendrix - Spanish Castle Magic
TTITLE3=Jimi Hendrix - Hey Joe
TTITLE4=Jimi Hendrix - Voodoo Chile (slight return)
TTITLE5=Jimi Hendrix - Sunshine Of Your Love
TTITLE6=Jimi Hendrix - Red House
TTITLE7=Jimi Hendrix - Fire
TTITLE8=Jimi Hendrix - Purple Haze
TTITLE9=Jimi Hendrix - Star Spangled Banner
EXTD=
EXTT0=
EXTT1=
EXTT2=
EXTT3=
EXTT4=
EXTT5=
EXTT6=
EXTT7=
EXTT8=
EXTT9=
PLAYORDER=
